# xmcd
#
# Track frame offsets: 
#        150
#        13654
#        26709
#        39093
#        51268
#        61752
#        73893
#        83348
#        93790
#        105524
#        116344
#        127299
#        138668
#        151165
#        164187
#        174782
#        186523
#        195844
#        205395
#        216458
#        227202
#        240026
#        253011
#
# Disc length: 3523 seconds
#
# Revision: 0
# Processed by: cddbd v1.5.2PL0 Copyright (c) Steve Scherf et al.
# Submitted via: ExactAudioCopy v0.99pb4
#
DISCID=380dc117
DTITLE=Webb Pierce - In The Jailhouse Now - 23 Greatest Hits
DYEAR=2006
DGENRE=Country
TTITLE0=Wondering
TTITLE1=That Heart Belongs To Me
TTITLE2=Back Street Affair
TTITLE3=I'll Go On Alone
TTITLE4=That's Me Without You
TTITLE5=The Last Waltz
TTITLE6=I Haven't Got The Heart
TTITLE7=It's Been So Long
TTITLE8=Don't Throw Your Life Away
TTITLE9=There Stands The Glass
TTITLE10=I'm Walking The Dog
TTITLE11=Slowly
TTITLE12=Even Tho
TTITLE13=Sparkling Brown Eyes
TTITLE14=More And More
TTITLE15=You're Not Mine Anymore
TTITLE16=In The Jailhouse Now
TTITLE17=I'm Gonna Fall Out Of Love With You
TTITLE18=I Don't Care
TTITLE19=Your Good For Nothing Heart
TTITLE20=Love, Love, Love
TTITLE21=If You Were Me
TTITLE22=Why Baby Why
EXTD=
EXTT0=
EXTT1=
EXTT2=
EXTT3=
EXTT4=
EXTT5=
EXTT6=
EXTT7=
EXTT8=
EXTT9=
EXTT10=
EXTT11=
EXTT12=
EXTT13=
EXTT14=
EXTT15=
EXTT16=
EXTT17=
EXTT18=
EXTT19=
EXTT20=
EXTT21=
EXTT22=
PLAYORDER=
